<?xml version="1.0" standalone="no"?>
<!DOCTYPE svg PUBLIC "-//W3C//DTD SVG 20010904//EN"
 "http://www.w3.org/TR/2001/REC-SVG-20010904/DTD/svg10.dtd">
<svg version="1.0" xmlns="http://www.w3.org/2000/svg"
 width="274.000000pt" height="246.000000pt" viewBox="0 0 274.000000 246.000000"
 preserveAspectRatio="xMidYMid meet">

<g transform="translate(0.000000,246.000000) scale(0.100000,-0.100000)"
fill="#000000" stroke="none">
<path d="M1053 2153 c59 -2 155 -2 215 0 59 1 10 3 -108 3 -118 0 -167 -2
-107 -3z"/>
<path d="M890 2129 c-14 -11 -19 -18 -12 -14 57 30 65 35 52 35 -8 0 -26 -10
-40 -21z"/>
<path d="M855 2089 c-4 -6 -5 -12 -2 -15 2 -3 7 2 10 11 7 17 1 20 -8 4z"/>
<path d="M842 2035 c0 -16 2 -22 5 -12 2 9 2 23 0 30 -3 6 -5 -1 -5 -18z"/>
<path d="M2151 1983 c0 -12 -4 -30 -7 -40 -5 -17 -5 -17 6 0 6 10 9 28 7 40
-4 22 -4 22 -6 0z"/>
<path d="M2006 1718 c-43 -74 -160 -255 -180 -277 -11 -13 -41 -37 -65 -52
-25 -16 -40 -29 -34 -29 13 0 83 51 109 81 12 13 61 86 108 161 72 112 92 138
114 141 26 4 26 4 -3 6 -25 1 -34 -5 -49 -31z"/>
<path d="M2433 1620 c0 -25 2 -35 4 -22 2 12 2 32 0 45 -2 12 -4 2 -4 -23z"/>
<path d="M2418 1545 c-8 -34 -284 -472 -331 -525 l-32 -35 33 30 c18 17 98
131 176 255 164 258 169 265 164 288 -3 11 -6 6 -10 -13z"/>
<path d="M709 1327 c-22 -15 -74 -84 -147 -197 -62 -96 -117 -184 -123 -195
-19 -36 29 27 68 90 105 170 186 286 206 297 17 10 137 14 492 18 l470 5 -466
3 -466 2 -34 -23z"/>
<path d="M2005 969 c-22 -10 -34 -19 -27 -19 15 0 72 28 72 35 0 6 3 7 -45
-16z"/>
<path d="M1938 943 c7 -3 16 -2 19 1 4 3 -2 6 -13 5 -11 0 -14 -3 -6 -6z"/>
<path d="M976 919 c-25 -20 -77 -92 -133 -184 -43 -71 13 0 71 90 35 55 62 85
86 97 19 10 28 18 19 18 -9 0 -28 -9 -43 -21z"/>
<path d="M410 890 c-6 -11 -8 -20 -6 -20 3 0 10 9 16 20 6 11 8 20 6 20 -3 0
-10 -9 -16 -20z"/>
<path d="M393 820 c0 -25 2 -35 4 -22 2 12 2 32 0 45 -2 12 -4 2 -4 -23z"/>
<path d="M498 533 c7 -3 16 -2 19 1 4 3 -2 6 -13 5 -11 0 -14 -3 -6 -6z"/>
<path d="M695 502 c-13 -20 -27 -53 -30 -72 -5 -34 -5 -34 8 5 7 22 22 53 31
68 l18 27 502 3 501 2 -502 3 -503 2 -25 -38z"/>
<path d="M1982 410 c0 -14 2 -19 5 -12 2 6 2 18 0 25 -3 6 -5 1 -5 -13z"/>
<path d="M1962 323 c-10 -37 -27 -61 -73 -106 -32 -32 -50 -53 -39 -47 58 31
141 153 128 190 -2 6 -9 -10 -16 -37z"/>
<path d="M1785 150 c-13 -6 -15 -9 -5 -9 8 0 22 4 30 9 18 12 2 12 -25 0z"/>
<path d="M893 133 c87 -2 227 -2 310 0 84 1 13 3 -158 3 -171 0 -239 -2 -152
-3z"/>
<path d="M1738 133 c7 -3 16 -2 19 1 4 3 -2 6 -13 5 -11 0 -14 -3 -6 -6z"/>
</g>
</svg>
